<?xml version="1.0" encoding="UTF-8" standalone="no"?>
<!-- Created with Inkscape (http://www.inkscape.org/) -->

<svg
   width="16.84976mm"
   height="16.933332mm"
   viewBox="0 0 16.84976 16.933332"
   version="1.1"
   id="svg5"
   inkscape:export-filename="/Users/Patrick/git/ssSeq/docs/favicon.png"
   inkscape:export-xdpi="96.476151"
   inkscape:export-ydpi="96.476151"
   inkscape:version="1.1 (c4e8f9e, 2021-05-24)"
   sodipodi:docname="favicon.svg"
   xmlns:inkscape="http://www.inkscape.org/namespaces/inkscape"
   xmlns:sodipodi="http://sodipodi.sourceforge.net/DTD/sodipodi-0.dtd"
   xmlns="http://www.w3.org/2000/svg"
   xmlns:svg="http://www.w3.org/2000/svg">
  <sodipodi:namedview
     id="namedview7"
     pagecolor="#ffffff"
     bordercolor="#666666"
     borderopacity="1.0"
     inkscape:pageshadow="2"
     inkscape:pageopacity="0.0"
     inkscape:pagecheckerboard="0"
     inkscape:document-units="mm"
     showgrid="false"
     fit-margin-top="0"
     fit-margin-left="0"
     fit-margin-right="0"
     fit-margin-bottom="0"
     inkscape:zoom="5.9832871"
     inkscape:cx="34.512801"
     inkscape:cy="31.003025"
     inkscape:window-width="1920"
     inkscape:window-height="1027"
     inkscape:window-x="0"
     inkscape:window-y="25"
     inkscape:window-maximized="0"
     inkscape:current-layer="layer1" />
  <defs
     id="defs2" />
  <g
     inkscape:label="Layer 1"
     inkscape:groupmode="layer"
     id="layer1"
     transform="translate(-58.42075,-23.319332)">
    <ellipse
       style="opacity:1;fill:#ffffff;stroke:none;stroke-width:0.203491;stroke-linejoin:round;stroke-miterlimit:4;stroke-dasharray:none;stroke-opacity:1"
       id="path5251"
       cx="66.845612"
       cy="31.785999"
       rx="8.3231173"
       ry="8.3649206" />
    <path
       style="fill:#c45703;stroke:none;stroke-width:0;stroke-miterlimit:4;stroke-dasharray:none;stroke-opacity:1"
       d="m 66.117406,23.364008 c -1.350706,0.156254 -2.63416,0.537799 -3.790151,1.273815 -0.954905,0.607991 -1.790171,1.399655 -2.432515,2.333447 -2.451324,3.563578 -1.784075,8.561615 1.547092,11.338769 0.894427,0.74571 1.965129,1.295816 3.079432,1.626099 0.99549,0.295093 2.131524,0.375048 3.164439,0.276402 1.199827,-0.114551 2.380964,-0.501922 3.417593,-1.115273 1.14101,-0.675122 2.131016,-1.595046 2.846134,-2.71707 2.010051,-3.153805 1.709177,-7.405501 -0.785243,-10.210425 -1.023125,-1.150445 -2.308184,-1.928143 -3.748593,-2.4343 -1.01743,-0.357529 -2.224852,-0.495636 -3.298188,-0.371464 m 5.576584,1.792984 0.01607,0.801658 c 0.02267,0.386608 -0.166875,0.772041 -0.269198,1.181389 -0.05686,0.250169 0.252981,1.350161 0.252981,1.350161 h -0.04219 c -0.09788,-0.138517 -0.297416,-0.420617 -0.501755,-0.33176 -0.281598,0.122415 -0.190066,0.583903 -0.431079,0.766383 -0.365092,0.276403 -0.966294,0.28995 -1.387755,0.471164 -0.380743,0.163718 -0.678919,0.479603 -1.054812,0.655335 l 0.410026,-1.51893 0.06616,-1.603314 0.494244,-1.561122 c 0.211736,0.06794 0.251517,0.269198 0.317076,0.464118 0.138431,0.411704 0.239061,0.873956 0.273618,1.307965 h 0.04219 c 0,0 0.229876,-0.262051 0.460998,-0.394101 0.125084,-0.534427 1.022026,-1.463865 1.226701,-1.588943 0,0 0.137943,-0.147817 0.126577,0 m -2.700322,0.632886 -0.04219,0.04219 0.04219,-0.04219 m -0.05623,0.112513 -0.01406,0.02813 0.01406,-0.02813 m -0.02813,0.09845 -0.240668,0.84385 -0.108897,1.645507 -0.409899,1.687699 0.04219,0.04219 c 0.433737,-0.206111 0.784231,-0.563356 1.223582,-0.763686 0.412812,-0.188171 0.92254,-0.19661 1.307167,-0.437915 0.210933,-0.132317 0.231426,-0.310242 0.305472,-0.528253 0.03278,-0.09658 0.08771,-0.240955 0.206082,-0.25654 0.270863,-0.03556 0.488294,0.507957 0.628458,0.678414 l -0.08438,-0.717271 c 0.22867,0.160589 0.450699,0.361461 0.543944,0.632887 0.08553,0.248991 0.02641,0.491499 0.196696,0.715623 0.39066,0.513821 1.080383,0.745712 1.622134,1.05646 v 0.04219 c -0.08777,0.01923 -0.174509,0.03582 -0.253325,0.08177 -0.0589,0.03436 -0.118254,0.07902 -0.162197,0.131628 -0.351464,0.420912 0.573692,0.581708 0.07718,0.946295 -0.179447,0.131772 -0.420109,0.132575 -0.632083,0.155279 -0.687823,0.07362 -1.263963,-0.230996 -1.940856,-0.260157 0.225772,0.258722 0.564071,0.30986 0.886044,0.344883 0.529894,0.05761 0.991225,0.087 1.518929,-0.04954 -0.411251,0.478463 -1.346489,0.213659 -1.898663,0.211018 -0.15789,-7.97e-4 -0.36066,-0.03134 -0.505675,0.04334 -0.177035,0.09121 -0.287545,0.308173 -0.402687,0.462935 -0.228555,0.307119 -0.473778,0.609345 -0.738792,0.886043 -0.372853,0.389268 -0.827309,0.70972 -1.264128,1.023377 -0.217764,0.15637 -0.527828,0.287163 -0.650903,0.538379 -0.163115,0.332814 -0.06642,0.821403 -0.06636,1.180755 4e-5,0.441713 0.08088,0.873092 0.151462,1.307968 0.02999,0.184929 0.05611,0.428633 0.174595,0.581203 0.119631,0.113488 0.348812,0.177437 0.433401,0.220462 0,0 0.555235,0.134642 0.632889,0.08436 0,0 0.383135,0.150974 0.253154,0.464118 -1.023372,0.272901 -1.737974,-0.32796 -1.737974,-0.32796 0.08516,-0.659261 0.01435,-1.120635 -0.08878,-1.781664 -0.03571,-0.228757 -0.135445,-0.442812 -0.152495,-0.675082 -0.03304,-0.450234 0.06662,-0.866 0.122789,-1.307966 -0.269514,0.03984 -0.492639,0.210445 -0.759464,0.245404 -0.165554,0.02153 -0.440576,-0.01492 -0.547322,0.147587 -0.212512,0.323532 0.13734,0.726051 0.15126,1.041566 0.0069,0.154676 -0.05933,0.308678 -0.06642,0.464118 -0.01808,0.401208 0.008,0.826635 0.06498,1.223581 0.02945,0.205508 0.03031,0.465257 0.196151,0.614744 0.396642,0.177494 0.858986,0.232689 1.256155,0.313486 l 0.253154,0.04219 c -0.101692,0.346654 -0.403235,0.404035 -0.717271,0.425723 -0.395388,0.02727 -0.783938,0.0384 -1.181389,0.0384 l -0.03992,-1.645506 -0.0095,-0.970431 -0.141846,-0.675079 -0.06294,-0.914817 -0.336358,-0.104935 -0.886043,-0.155738 -0.717272,-0.278441 -1.135402,-0.329733 -0.341969,-0.147157 -0.463484,0.09865 -0.928235,0.228843 v -0.126577 l -0.590694,0.168769 0.210961,-0.253154 -1.51893,0.295349 0.08438,-0.210961 -0.548503,0.04219 v -0.04219 l 1.223584,-0.445596 1.097005,-0.356063 -0.210962,-0.08438 c 0.133954,-0.08895 0.29274,-0.130509 0.421891,-0.228585 0.323291,-0.245547 0.563281,-0.625123 0.717306,-0.994985 l -0.210961,0.04219 c 0.176891,-0.314039 0.520615,-0.509054 0.732716,-0.801658 0.224422,-0.309608 0.386653,-0.661538 0.614195,-0.970428 0.473739,-0.643139 1.159366,-1.279487 1.85972,-1.672383 0.309734,-0.173792 0.55922,-0.08088 0.88604,-0.103787 0.277091,-0.01952 0.582428,-0.165354 0.801659,-0.329355 0.568585,-0.425344 1.025573,-0.95389 1.382732,-1.565215 0.170663,-0.292174 0.263773,-0.668389 0.473739,-0.928236 m 5.527196,5.020887 -0.379733,-0.253153 c 0.215726,-0.105194 0.331505,0.05123 0.379733,0.253153 m -6.371171,7.904085 c 0.03261,0 0.0066,0.02095 -0.01406,0.01406"
       id="path1916"
       inkscape:export-filename="/Users/Patrick/path1916.png"
       inkscape:export-xdpi="137.7706"
       inkscape:export-ydpi="137.7706"
       sodipodi:nodetypes="csssssssssccccccsssccccccccccccccccccccccsscccscccscsccsccscsscsscccccssccsccscccsccccccccccccccccccccccsccssscsscccccc" />
  </g>
</svg>
